PathFileType   4   (X/Y/Z)
DataRate	CameraRate	NumFrames	NumMarkers	Units	OrigDataRate	OrigDataStartFrame	OrigNumFrames
120.0	120.0	12	37	mm	120.0	30	118
Frame#	Time	midhip	hip_r	hip_l	knee_r	knee_l	ankle_r	ankle_l	midasis	asis_r	asis_l	psis_r	psis_l	epicondLat_r	epicondLat_l	epicondMed_r	epicondMed_l	malleolusLat_r	malleolusLat_l	malleolusMedv_r	malleolusMedv_l	neck	subclavicle_r	subclavicle_l	sternalnotch	xyphoidprocess	thighwand_r	thighwand_l	upperleg1_r	upperleg1_l	upperleg2_r	upperleg2_l	shankwand_r	shankwand_l	lowerleg1_r	lowerleg1_l	toe_r	toe_l
 	 	X1	Y1	Z1	X2	Y2	Z2	X3	Y3	Z3	X4	Y4	Z4	X5	Y5	Z5	X6	Y6	Z6	X7	Y7	Z7	X8	Y8	Z8	X9	Y9	Z9	X10	Y10	Z10	X11	Y11	Z11	X12	Y12	Z12	X13	Y13	Z13	X14	Y14	Z14	X15	Y15	Z15	X16	Y16	Z16	X17	Y17	Z17	X18	Y18	Z18	X19	Y19	Z19	X20	Y20	Z20	X21	Y21	Z21	X22	Y22	Z22	X23	Y23	Z23	X24	Y24	Z24	X25	Y25	Z25	X26	Y26	Z26	X27	Y27	Z27	X28	Y28	Z28	X29	Y29	Z29	X30	Y30	Z30	X31	Y31	Z31	X32	Y32	Z32	X33	Y33	Z33	X34	Y34	Z34	X35	Y35	Z35	X36	Y36	Z36	X37	Y37	Z37

	30	0.36667	1380.987	896.620	-198.768	1382.390	874.351	-130.732	1380.612	881.992	-280.957	1352.645	470.604	-129.079	1545.336	487.371	-285.808	1288.241	69.839	-158.242	1447.394	108.120	-280.738	1466.764	966.116	-202.381	1468.175	960.052	-83.154	1465.354	972.180	-321.607	1278.069	1003.778	-166.643	1283.184	1003.336	-252.515	1366.232	469.836	-72.184	1544.835	487.875	-343.804	1330.364	478.572	-181.364	1558.061	487.962	-225.226	1279.685	68.372	-119.195	1424.750	113.550	-312.023	1296.031	83.756	-187.230	1458.086	119.308	-255.194	1278.754	1430.839	-174.264	1406.484	1351.739	-131.594	1411.164	1361.286	-237.337	1391.745	1364.330	-181.503	1472.870	1201.525	-204.499	1426.408	569.115	-0.869	1660.927	635.424	-301.328	1435.074	636.888	-64.171	1574.749	657.631	-336.855	1424.717	552.338	-91.585	1589.801	571.047	-327.587	1327.805	188.404	-26.264	1468.006	243.604	-399.692	1303.948	162.855	-99.778	1454.405	209.253	-327.070	1409.856	39.667	-139.521	1547.357	53.165	-314.229
	31	0.37500	1390.471	895.850	-199.277	1391.119	873.175	-131.057	1390.182	881.047	-281.278	1356.636	470.082	-129.349	1556.820	486.706	-285.307	1288.341	69.823	-158.478	1478.097	103.141	-280.338	1475.879	965.064	-202.090	1476.622	958.817	-82.884	1475.135	971.311	-321.296	1287.121	1002.707	-167.421	1292.533	1002.259	-253.374	1370.496	469.137	-72.523	1556.998	487.374	-343.303	1335.800	477.371	-181.475	1569.455	488.551	-223.070	1279.879	68.423	-119.409	1455.291	107.416	-311.684	1296.187	83.731	-187.538	1488.262	114.820	-254.821	1288.408	1430.113	-174.238	1416.106	1350.754	-130.942	1420.487	1360.132	-237.063	1401.257	1363.193	-181.299	1481.983	1200.297	-203.957	1432.232	568.025	-1.479	1671.009	635.889	-298.986	1440.935	635.789	-64.866	1584.893	657.563	-335.608	1430.417	551.258	-92.029	1601.089	571.609	-325.627	1329.424	188.091	-26.472	1492.175	239.471	-399.354	1305.405	162.779	-100.278	1479.776	203.760	-326.262	1409.773	39.633	-139.504	1580.855	53.540	-313.383
	32	0.38333	1400.116	895.112	-199.691	1399.778	871.922	-131.470	1399.780	879.975	-281.684	1360.812	469.509	-129.660	1567.883	485.722	-284.841	1288.411	69.837	-158.694	1508.751	98.748	-279.913	1484.997	963.880	-201.862	1484.995	957.491	-82.684	1484.998	970.268	-321.041	1296.241	1001.580	-168.213	1301.933	1001.073	-254.248	1374.952	468.395	-72.906	1568.697	486.533	-342.830	1341.845	475.423	-181.689	1577.836	485.531	-225.801	1280.082	68.506	-119.593	1485.867	101.844	-311.341	1296.221	83.687	-187.732	1518.509	110.549	-254.503	1298.022	1429.105	-174.119	1425.902	1349.918	-130.555	1430.037	1358.870	-236.997	1410.851	1361.978	-181.137	1491.662	1199.186	-203.224	1438.191	566.874	-2.149	1680.705	635.757	-296.834	1447.016	634.494	-66.038	1594.917	657.049	-334.168	1436.474	549.839	-92.671	1610.930	570.958	-325.958	1331.200	187.768	-26.695	1516.297	235.597	-399.027	1306.669	162.668	-100.470	1505.554	198.786	-325.973	1409.703	39.590	-139.504	1614.076	54.467	-312.365
	33	0.39167	1409.553	894.048	-199.994	1408.387	870.590	-131.963	1409.421	878.767	-282.166	1365.211	468.876	-130.017	1578.560	484.449	-284.411	1288.479	69.911	-158.872	1539.220	95.001	-279.461	1494.129	962.565	-201.693	1493.309	956.078	-82.542	1494.950	969.051	-320.844	1305.417	1000.378	-169.018	1311.386	999.778	-255.134	1379.610	467.603	-73.332	1579.951	485.376	-342.387	1346.664	474.738	-181.769	1585.642	483.596	-226.048	1280.308	68.652	-119.736	1516.348	96.911	-310.992	1296.234	83.673	-187.921	1548.658	106.975	-254.057	1307.745	1427.679	-173.982	1435.423	1348.726	-130.417	1439.592	1357.527	-237.043	1420.515	1360.675	-181.038	1501.239	1197.903	-202.918	1444.262	565.660	-2.854	1690.036	635.017	-294.915	1453.403	633.209	-67.121	1604.589	656.162	-332.798	1442.213	548.977	-93.312	1620.130	569.470	-325.152	1333.117	187.438	-26.925	1540.310	232.060	-398.696	1308.145	162.571	-100.556	1531.632	194.806	-326.113	1409.644	39.540	-139.522	1646.913	55.935	-311.168
	34	0.40000	1419.185	893.027	-200.270	1416.978	869.180	-132.509	1419.107	877.420	-282.697	1369.872	468.168	-130.431	1588.908	482.920	-284.011	1288.566	70.058	-159.008	1569.372	91.939	-278.996	1503.282	961.130	-201.576	1501.593	954.594	-82.445	1504.971	967.667	-320.706	1314.629	999.083	-169.841	1320.895	998.364	-256.044	1384.483	466.745	-73.803	1590.804	483.929	-341.971	1350.037	475.592	-181.917	1594.457	481.347	-226.018	1280.565	68.880	-119.834	1546.600	92.670	-310.649	1296.551	83.539	-188.110	1577.989	104.168	-253.451	1317.568	1426.052	-174.061	1444.847	1347.131	-130.585	1449.164	1356.102	-236.883	1430.206	1359.278	-181.020	1510.679	1196.393	-203.119	1450.413	564.382	-3.565	1699.030	633.683	-293.265	1459.889	632.074	-67.614	1613.585	654.667	-331.695	1447.385	548.261	-94.026	1629.396	567.760	-324.391	1335.156	187.109	-27.161	1564.131	228.928	-398.351	1310.092	162.560	-100.728	1557.340	191.070	-325.815	1409.596	39.484	-139.547	1679.254	57.929	-309.793
	35	0.40833	1429.193	892.207	-200.666	1425.589	867.691	-133.083	1428.850	875.927	-283.252	1374.838	467.371	-130.914	1599.000	481.167	-283.635	1288.687	70.276	-159.106	1599.091	89.572	-278.539	1512.464	959.588	-201.502	1509.878	953.054	-82.382	1515.051	966.121	-320.622	1323.855	997.680	-170.699	1330.472	996.815	-256.983	1389.583	465.809	-74.324	1601.317	482.222	-341.579	1354.991	475.467	-182.352	1603.416	479.645	-225.088	1280.855	69.192	-119.895	1576.492	89.153	-310.321	1297.313	83.480	-188.236	1606.940	102.239	-253.009	1327.264	1424.564	-174.308	1454.966	1345.676	-131.146	1459.084	1354.218	-236.868	1439.921	1357.769	-181.112	1520.706	1194.672	-202.938	1456.618	563.038	-4.250	1707.723	631.790	-291.902	1465.990	630.858	-67.756	1621.936	652.410	-331.563	1453.063	547.337	-94.545	1638.494	565.967	-323.607	1337.294	186.788	-27.407	1587.663	226.245	-397.985	1311.867	162.286	-101.123	1582.314	187.679	-325.343	1409.562	39.425	-139.565	1710.972	60.429	-308.247
	36	0.41667	1438.887	890.933	-201.110	1434.248	866.122	-133.659	1438.653	874.285	-283.802	1380.141	466.478	-131.476	1608.903	479.222	-283.272	1288.857	70.547	-159.181	1628.267	87.891	-278.105	1521.683	957.946	-201.460	1518.188	951.469	-82.339	1525.178	964.422	-320.580	1333.086	996.159	-171.621	1340.133	995.114	-257.956	1394.920	464.786	-74.899	1611.551	480.286	-341.202	1361.717	474.317	-183.165	1611.436	477.243	-224.438	1281.176	69.572	-119.937	1605.896	86.362	-310.015	1298.033	83.640	-188.363	1635.935	101.203	-252.572	1336.823	1423.270	-174.207	1464.943	1344.177	-131.160	1469.062	1352.510	-237.089	1449.671	1356.126	-181.296	1530.609	1192.998	-202.737	1462.855	561.626	-4.882	1716.165	629.393	-290.823	1472.126	629.764	-68.130	1630.207	649.504	-331.395	1459.478	546.319	-95.082	1646.935	563.493	-323.024	1339.501	186.489	-27.669	1610.790	224.032	-397.601	1313.375	162.140	-101.545	1606.724	185.243	-325.258	1409.546	39.367	-139.564	1741.925	63.405	-306.546
	37	0.42500	1448.981	889.926	-201.273	1442.975	864.477	-134.206	1448.520	872.490	-284.319	1385.801	465.491	-132.117	1618.670	477.124	-282.919	1289.087	70.846	-159.254	1656.778	86.872	-277.703	1530.942	956.214	-201.432	1526.542	949.854	-82.299	1535.343	962.574	-320.565	1342.326	994.520	-172.634	1349.887	993.249	-258.962	1400.499	463.681	-75.523	1621.559	478.162	-340.838	1367.733	474.097	-184.642	1619.439	472.916	-225.808	1281.523	70.000	-119.985	1634.670	84.285	-309.727	1298.274	83.815	-188.519	1664.199	100.683	-251.960	1346.310	1421.998	-174.333	1474.447	1342.433	-130.928	1478.542	1351.217	-237.270	1459.461	1354.380	-181.512	1539.888	1191.472	-203.357	1469.112	560.154	-5.441	1724.419	626.570	-290.008	1478.789	628.574	-68.694	1638.513	646.408	-330.666	1465.723	545.067	-96.145	1655.218	560.347	-323.264	1341.746	186.218	-27.954	1633.390	222.294	-397.210	1315.386	162.546	-101.740	1630.854	183.947	-325.137	1409.553	39.314	-139.541	1771.959	66.817	-304.711
	38	0.43333	1459.777	889.486	-201.037	1451.774	862.769	-134.693	1458.446	870.552	-284.772	1391.815	464.420	-132.827	1628.335	474.916	-282.579	1289.388	71.161	-159.346	1684.477	86.474	-277.330	1540.240	954.408	-201.398	1534.943	948.229	-82.240	1545.537	960.588	-320.555	1351.583	992.772	-173.756	1359.739	991.220	-260.000	1406.319	462.502	-76.186	1631.385	475.904	-340.490	1374.136	473.633	-186.151	1627.083	468.831	-226.820	1281.900	70.463	-120.059	1662.652	82.885	-309.451	1298.538	83.802	-188.593	1691.495	100.735	-251.552	1356.123	1420.235	-174.861	1484.096	1340.412	-131.821	1488.120	1349.438	-237.547	1469.287	1352.560	-181.734	1549.264	1189.535	-204.416	1475.389	558.633	-5.915	1732.560	623.422	-289.419	1485.353	627.332	-68.818	1646.457	643.174	-330.159	1472.060	543.481	-97.058	1663.053	557.084	-323.484	1344.009	185.971	-28.268	1655.337	221.011	-396.827	1317.453	162.657	-101.818	1654.634	182.896	-324.956	1409.585	39.273	-139.500	1800.913	70.611	-302.776
	39	0.44167	1469.865	888.130	-200.696	1460.636	861.016	-135.099	1468.423	868.483	-285.141	1398.160	463.274	-133.586	1637.924	472.645	-282.261	1289.775	71.495	-159.475	1711.189	86.630	-276.967	1549.570	952.541	-201.337	1543.383	946.608	-82.139	1555.756	958.473	-320.535	1360.870	990.931	-174.994	1369.692	989.046	-261.069	1412.369	461.258	-76.874	1641.070	473.571	-340.168	1381.258	471.925	-186.520	1634.249	465.277	-226.695	1282.320	70.961	-120.180	1689.656	82.101	-309.167	1299.119	83.940	-188.606	1717.802	101.266	-251.173	1366.259	1418.352	-175.046	1494.083	1338.262	-132.314	1498.121	1347.094	-238.063	1479.141	1350.686	-181.952	1558.831	1187.081	-204.657	1481.697	557.079	-6.290	1740.669	620.078	-289.007	1491.912	626.089	-68.946	1654.679	639.698	-329.476	1478.744	541.824	-97.217	1670.614	553.723	-323.153	1346.285	185.741	-28.618	1676.512	220.142	-396.468	1319.022	162.408	-101.731	1677.481	181.671	-324.801	1409.633	39.246	-139.450	1828.627	74.706	-300.777
	40	0.45000	1479.311	885.929	-200.482	1469.525	859.233	-135.415	1478.427	866.303	-285.414	1404.793	462.067	-134.372	1647.457	470.366	-281.976	1290.261	71.867	-159.655	1736.723	87.243	-276.578	1558.912	950.619	-201.233	1551.833	944.997	-81.969	1565.990	956.241	-320.497	1370.206	989.015	-176.349	1379.738	986.762	-262.166	1418.624	459.962	-77.569	1650.653	471.227	-339.882	1387.729	470.524	-186.518	1641.788	462.374	-225.698	1282.799	71.511	-120.359	1715.487	81.841	-308.841	1299.542	84.329	-188.735	1742.672	101.885	-250.524	1376.386	1416.722	-175.144	1503.913	1336.407	-131.849	1508.065	1344.914	-238.319	1489.071	1348.761	-182.194	1568.272	1184.814	-203.973	1488.045	555.507	-6.562	1748.828	616.686	-288.716	1499.121	624.095	-69.280	1663.093	636.208	-329.348	1485.428	540.265	-97.026	1678.649	550.133	-322.566	1348.576	185.523	-29.003	1696.808	219.612	-396.135	1320.522	162.355	-101.784	1699.541	181.063	-324.391	1409.692	39.235	-139.402	1854.953	78.986	-298.755
	41	0.45833	1488.767	883.662	-200.371	1478.419	857.432	-135.639	1488.441	864.035	-285.588	1411.676	460.819	-135.164	1656.957	468.138	-281.734	1290.853	72.310	-159.890	1760.888	88.190	-276.117	1568.261	948.647	-201.072	1560.284	943.390	-81.712	1576.239	953.903	-320.433	1379.603	987.041	-177.801	1389.856	984.415	-263.293	1425.062	458.634	-78.258	1660.177	468.945	-339.639	1394.096	470.069	-187.386	1649.821	459.205	-224.974	1283.350	72.142	-120.600	1739.952	81.986	-308.431	1299.834	84.606	-188.929	1766.034	103.286	-250.100	1386.495	1414.925	-175.444	1513.764	1334.619	-131.938	1518.080	1342.937	-238.273	1499.129	1346.794	-182.500	1578.068	1182.834	-203.647	1494.440	553.936	-6.730	1757.119	613.403	-288.496	1506.452	622.021	-69.155	1671.358	632.802	-329.333	1492.064	538.634	-97.143	1686.889	546.316	-322.153	1350.888	185.327	-29.414	1716.143	219.318	-395.812	1322.591	162.371	-102.297	1721.053	180.861	-323.996	1409.755	39.239	-139.368	1879.759	83.294	-296.754
